<svg xmlns="http://www.w3.org/2000/svg" viewBox="0 0 524 462" xmlns:bx="https://boxy-svg.com">
  <g transform="matrix(1, 0, 0, 1, 538.965088, 3.15601)" style="">
    <path d="M -383.71 138.105 L -247.8917 137.8086 L -172.3333 214.4186 L -174.3 397.075 L -383.71 397.075 L -383.71 138.105 Z" style="fill: rgb(255, 255, 255);"></path>
    <path fill-rule="evenodd" d="M -173.37 68.5353 C -114.89 68.1293 -65.464 60.7393 -50.666 105.738 C -47.635 114.956 -49.648 124.071 -49.66 133.891 C -49.72 180.867 -60.494 240.408 -15.36 243.489 C -15.36 255.554 -15.36 267.622 -15.36 279.687 C -33.597 280.342 -44.506 293.12 -48.655 308.846 C -48.655 313.538 -48.655 318.231 -48.655 322.923 C -55.95 361.244 -36.349 423.757 -69.775 448.608 C -93.557 466.29 -130.1 462.687 -171.36 462.685 C -241.75 462.685 -312.16 462.685 -382.56 462.685 C -422.63 462.689 -461.97 466.822 -485.14 449.614 C -511.65 429.927 -507.27 390.594 -507.27 345.043 C -507.27 332.931 -504.61 314.96 -508.27 304.824 C -511.14 296.896 -517.63 288.888 -524.37 284.714 C -529.21 281.711 -539.03 282.069 -541.46 276.67 C -538.67 272.3 -540.34 249.788 -540.46 242.484 C -482 241.504 -519.69 150.059 -505.26 105.738 C -490.46 60.3033 -441.08 68.4743 -382.56 68.5353 C -382.86 40.8823 -384.27 17.5333 -368.48 6.1954 C -357.6 -1.6176 -340.23 -0.8436 -321.21 -0.8436 C -293.05 -0.8436 -264.89 -0.8436 -236.73 -0.8436 C -215.83 -0.8436 -199.12 -1.2876 -187.45 7.2004 C -172.19 18.2973 -173.08 41.6603 -173.37 68.5353 Z M -353.39 68.5353 C -303.11 68.5353 -252.81 68.5353 -202.53 68.5353 C -202.48 56.5713 -201.1184 48.8173 -203.8036 37.72 C -207.0033 31.2339 -209.7308 30.7354 -213.1862 30.1732 C -223.7788 28.4497 -237.49 29.3213 -245.78 29.3213 C -270.92 29.3213 -296.07 29.3213 -321.21 29.3213 C -326.5496 29.3213 -333.8487 29.0701 -340.2644 29.2741 C -345.3872 29.437 -352.2432 29.3469 -353.0856 37.762 C -353.0856 37.762 -353.53 59.2353 -353.39 68.5353 Z M -454.97 100.71 C -457.99 101.716 -461 102.721 -464.02 103.727 C -467.46 109.023 -472.25 112.559 -474.08 119.815 C -474.08 151.987 -474.08 184.169 -474.08 216.341 C -479.01 237.279 -488.97 254.068 -507.27 261.588 C -506.93 261.923 -506.6 262.258 -506.26 262.594 C -503.41 265.361 -499.51 266.225 -496.2 268.626 C -484.89 276.847 -477.76 293.068 -474.08 308.846 C -474.08 315.884 -474.08 322.923 -474.08 329.961 C -474.08 355.253 -478.66 403.688 -468.04 418.444 C -455.32 436.131 -417.71 431.515 -387.59 431.515 C -334.29 431.515 -280.97 431.515 -227.68 431.515 C -187.38 431.516 -161.84 435.082 -146.21 409.394 C -141.02 400.86 -142.19 385.783 -142.19 372.191 C -142.19 346.387 -142.19 320.574 -142.19 294.769 C -142.19 270.975 -142.19 247.174 -142.19 223.38 C -142.19 213.499 -140.19 199.275 -143.2 191.204 C -146.99 180.995 -157.18 174.21 -164.32 167.072 C -179.31 152.08 -193.67 136.967 -209.57 122.831 C -216.34 116.813 -221.94 106.404 -230.69 102.721 C -244.58 96.8782 -280.58 100.71 -299.08 100.71 C -351.04 100.71 -403.01 100.71 -454.97 100.71 Z M -385.58 125.848 C -351.05 125.848 -316.51 125.848 -281.99 125.848 C -273.63 125.848 -247.89 123.668 -242.76 126.853 C -234.61 129.738 -227.46 140.148 -221.64 145.957 C -211.23 156.35 -200.83 168.91 -189.46 178.133 C -180.61 185.309 -166.93 194.399 -163.31 206.286 C -160.35 216.005 -162.3 231.039 -162.3 242.484 C -162.3 267.283 -162.3 292.09 -162.3 316.89 C -162.3 335.399 -161.5 353.56 -163.31 366.159 C -164.63 375.349 -160.38 389.237 -164.32 398.334 C -166.73 403.913 -172.31 405.517 -176.38 409.394 C -203.54 409.73 -230.7 410.065 -257.85 410.4 C -274.33 410.401 -285.6 408.158 -298.08 410.4 C -309.38 412.43 -326.72 409.404 -332.27 410.4 C -346.4 412.935 -385.18 411.463 -392.62 406.378 C -404.21 398.446 -399.66 364.966 -399.66 346.049 C -399.66 295.444 -399.66 244.825 -399.66 194.221 C -399.66 181.793 -402.64 145.012 -397.64 137.913 C -395.42 130.813 -390.28 130.201 -385.58 125.848 Z M -251.81 145.957 C -294.39 145.957 -336.97 145.957 -379.54 145.957 C -379.54 146.628 -379.54 147.298 -379.54 147.968 C -381.84 151.688 -380.55 161.517 -380.55 167.072 C -380.55 182.823 -380.55 198.579 -380.55 214.33 C -380.55 272.978 -380.55 331.643 -380.55 390.29 C -370.34 395.501 -338.06 392.301 -323.22 392.301 C -277.3 392.301 -231.36 392.301 -185.44 392.301 C -178.23 384.192 -181.41 359.725 -181.41 345.043 C -181.41 302.482 -181.41 259.908 -181.41 217.347 C -193.82 213.215 -221.6 216.261 -236.73 216.341 C -239.41 215.336 -242.09 214.33 -244.77 213.325 C -246.78 210.644 -248.8 207.962 -250.81 205.281 C -254.68 195.394 -251.87 159.587 -251.81 145.957 Z M -233.71 160.034 C -233.82 171.772 -234.69 186.157 -232.7 196.232 C -223.6 199.286 -207.51 197.32 -196.5 197.237 C -196.5 196.567 -196.5 195.896 -196.5 195.226 C -207.79 187.694 -222.27 164.157 -233.71 160.034 Z" style="stroke-width: 1;" fill="rgb(1, 70, 91)"></path>
    <line style="fill: rgb(216, 216, 216); stroke-width: 22px; stroke-linecap: round; stroke: rgb(21, 155, 174);" x1="-345.19" y1="250.592" x2="-238.04" y2="250.592"></line>
    <line style="fill: rgb(216, 216, 216); stroke-width: 22; stroke-linecap: round; stroke: rgb(25, 155, 176);" x1="-345.19" y1="328.499" x2="-268.37" y2="328.499"></line>
    <line style="fill: rgb(216, 216, 216); stroke-width: 22; stroke-linecap: round; stroke: rgb(27, 156, 176);" x1="-345.19" y1="289.41" x2="-224.73" y2="289.41"></line>
  </g>
</svg>
