<svg xmlns="http://www.w3.org/2000/svg" viewBox="1.0192 23.1545 526.1001 463.9877">
  <defs></defs>
  <g transform="matrix(1, 0, 0, 1, 558.556335, 9.399981)" style="">
    <g transform="matrix(1, 0, 0, 1, -16.077145, 14.619246)">
      <path d="M -383.71 138.105 L -247.8917 137.8086 L -172.3333 214.4186 L -174.3 397.075 L -383.71 397.075 L -383.71 138.105 Z" style="fill: rgb(248, 248, 248);"></path>
      <path fill-rule="evenodd" d="M -173.37 68.5353 C -114.89 68.1293 -65.464 60.7393 -50.666 105.738 C -47.635 114.956 -49.648 124.071 -49.66 133.891 C -49.72 180.867 -60.494 240.408 -15.36 243.489 C -15.36 255.554 -15.36 267.622 -15.36 279.687 C -33.597 280.342 -44.506 293.12 -48.655 308.846 C -48.655 313.538 -48.655 318.231 -48.655 322.923 C -55.95 361.244 -36.349 423.757 -69.775 448.608 C -93.557 466.29 -130.1 462.687 -171.36 462.685 C -241.75 462.685 -312.16 462.685 -382.56 462.685 C -422.63 462.689 -461.97 466.822 -485.14 449.614 C -511.65 429.927 -507.27 390.594 -507.27 345.043 C -507.27 332.931 -504.61 314.96 -508.27 304.824 C -511.14 296.896 -517.63 288.888 -524.37 284.714 C -529.21 281.711 -539.03 282.069 -541.46 276.67 C -538.67 272.3 -540.34 249.788 -540.46 242.484 C -482 241.504 -519.69 150.059 -505.26 105.738 C -490.46 60.3033 -441.08 68.4743 -382.56 68.5353 C -382.86 40.8823 -384.27 17.5333 -368.48 6.1954 C -357.6 -1.6176 -340.23 -0.8436 -321.21 -0.8436 C -293.05 -0.8436 -264.89 -0.8436 -236.73 -0.8436 C -215.83 -0.8436 -199.12 -1.2876 -187.45 7.2004 C -172.19 18.2973 -173.08 41.6603 -173.37 68.5353 Z M -353.39 68.5353 C -303.11 68.5353 -252.81 68.5353 -202.53 68.5353 C -202.48 56.5713 -201.1184 48.8173 -203.8036 37.72 C -207.0033 31.2339 -209.7308 30.7354 -213.1862 30.1732 C -223.7788 28.4497 -237.49 29.3213 -245.78 29.3213 C -270.92 29.3213 -296.07 29.3213 -321.21 29.3213 C -326.5496 29.3213 -333.8487 29.0701 -340.2644 29.2741 C -345.3872 29.437 -352.2432 29.3469 -353.0856 37.762 C -353.0856 37.762 -353.53 59.2353 -353.39 68.5353 Z M -454.97 100.71 C -457.99 101.716 -461 102.721 -464.02 103.727 C -467.46 109.023 -472.25 112.559 -474.08 119.815 C -474.08 151.987 -474.08 184.169 -474.08 216.341 C -479.01 237.279 -488.97 254.068 -507.27 261.588 C -506.93 261.923 -506.6 262.258 -506.26 262.594 C -503.41 265.361 -499.51 266.225 -496.2 268.626 C -484.89 276.847 -477.76 293.068 -474.08 308.846 C -474.08 315.884 -474.08 322.923 -474.08 329.961 C -474.08 355.253 -478.66 403.688 -468.04 418.444 C -455.32 436.131 -417.71 431.515 -387.59 431.515 C -334.29 431.515 -280.97 431.515 -227.68 431.515 C -187.38 431.516 -161.84 435.082 -146.21 409.394 C -141.02 400.86 -142.19 385.783 -142.19 372.191 C -142.19 346.387 -142.19 320.574 -142.19 294.769 C -142.19 270.975 -142.19 247.174 -142.19 223.38 C -142.19 213.499 -140.19 199.275 -143.2 191.204 C -146.99 180.995 -157.18 174.21 -164.32 167.072 C -179.31 152.08 -193.67 136.967 -209.57 122.831 C -216.34 116.813 -221.94 106.404 -230.69 102.721 C -244.58 96.8782 -280.58 100.71 -299.08 100.71 C -351.04 100.71 -403.01 100.71 -454.97 100.71 Z" style="stroke-width: 6px; fill: rgb(171, 171, 171); stroke: rgb(0, 0, 0);"></path>
      <line style="fill: rgb(216, 216, 216); stroke-width: 22px; stroke-linecap: round; stroke: rgb(147, 147, 147);" x1="-345.19" y1="250.592" x2="-238.04" y2="250.592"></line>
      <line style="fill: rgb(216, 216, 216); stroke-width: 22; stroke-linecap: round; stroke: rgb(142, 142, 142);" x1="-345.19" y1="328.499" x2="-268.37" y2="328.499"></line>
      <line style="fill: rgb(216, 216, 216); stroke-width: 22; stroke-linecap: round; stroke: rgb(148, 148, 148);" x1="-345.19" y1="289.41" x2="-224.73" y2="289.41"></line>
      <path fill-rule="evenodd" d="M -385.37 125.337 C -350.84 125.337 -316.3 125.337 -281.78 125.337 C -273.42 125.337 -247.68 123.157 -242.55 126.342 C -234.4 129.227 -227.25 139.637 -221.43 145.446 C -211.02 155.839 -200.62 168.399 -189.25 177.622 C -180.4 184.798 -166.72 193.888 -163.1 205.775 C -160.14 215.494 -162.09 230.528 -162.09 241.973 C -162.09 266.772 -162.09 291.579 -162.09 316.379 C -162.09 334.888 -161.29 353.049 -163.1 365.648 C -164.42 374.838 -160.17 388.726 -164.11 397.823 C -166.52 403.402 -172.1 405.006 -176.17 408.883 C -203.33 409.219 -230.49 409.554 -257.64 409.889 C -274.12 409.89 -285.39 407.647 -297.87 409.889 C -309.17 411.919 -326.51 408.893 -332.06 409.889 C -346.19 412.424 -384.97 410.952 -392.41 405.867 C -404 397.935 -399.45 364.455 -399.45 345.538 C -399.45 294.933 -399.45 244.314 -399.45 193.71 C -399.45 181.282 -402.43 144.501 -397.43 137.402 C -395.21 130.302 -390.07 129.69 -385.37 125.337 Z M -251.6 145.446 C -294.18 145.446 -336.76 145.446 -379.33 145.446 C -379.33 146.117 -379.33 146.787 -379.33 147.457 C -381.63 151.177 -380.34 161.006 -380.34 166.561 C -380.34 182.312 -380.34 198.068 -380.34 213.819 C -380.34 272.467 -380.34 331.132 -380.34 389.779 C -370.13 394.99 -337.85 391.79 -323.01 391.79 C -277.09 391.79 -231.15 391.79 -185.23 391.79 C -178.02 383.681 -181.2 359.214 -181.2 344.532 C -181.2 301.971 -181.2 259.397 -181.2 216.836 C -193.61 212.704 -221.39 215.75 -236.52 215.83 C -239.2 214.825 -241.88 213.819 -244.56 212.814 C -246.57 210.133 -248.59 207.451 -250.6 204.77 C -254.47 194.883 -251.66 159.076 -251.6 145.446 Z M -233.5 159.523 C -233.61 171.261 -234.48 185.646 -232.49 195.721 C -223.39 198.775 -207.3 196.809 -196.29 196.726 C -196.29 196.056 -196.29 195.385 -196.29 194.715 C -207.58 187.183 -222.06 163.646 -233.5 159.523 Z" style="stroke-width: 1; fill: rgb(141, 141, 141);"></path>
    </g>
  </g>
  <path d="M 193.166 24.304 L 331.874 24.506 C 348.527 25.2288 363.045 34.4533 367.086 50.9332 C 370.699 65.6714 369.527 94.4167 369.527 94.4167 L 339.601 94.1585 C 339.325 84.6982 338.504 66.173 338.504 66.173 C 338.504 66.173 337.031 57.3013 326.792 56.2417 L 203.868 56.7925 C 189.402 56.0409 190.787 62.8866 190.787 62.8866 C 190.787 62.8866 190.108 83.0695 190.426 93.9687 L 158.962 94.0187 L 159.703 55.4842 C 163.124 33.8952 177.261 26.7587 193.166 24.304 Z" style="fill: rgba(0, 0, 0, 0.275);"></path>
</svg>
